# xmcd
#
# Track frame offsets:
#	150
#	24295
#	38875
#	74945
#	89588
#	121138
#
# Disc length: 2074 seconds
#
# Revision: 1
# Processed by: cddbd v1.4b42PL1 Copyright (c) Steve Scherf et al.
# Submitted via: audiograbber 1.80
#
DISCID=4f081806
DTITLE=김영동 - 김영동의 명상음악 (禪 2)
DYEAR=1900
DGENRE=
TTITLE0=귀 소 (5 - 24)
TTITLE1=아침의 소리 (3 - 11)
TTITLE2=여 명 (수룡음)(8 - 00)
TTITLE3=산 행 (3 - 10)
TTITLE4=영 가 (7 - 00)
TTITLE5=영산회상불보살 (7 - 47)
EXTD=
EXTT0=
EXTT1=
EXTT2=
EXTT3=
EXTT4=
EXTT5=
PLAYORDER=
